<?xml version="1.0" encoding="UTF-8" standalone="no"?>
<svg width="512px" height="512px" viewBox="0 0 512 512" version="1.1" xmlns="http://www.w3.org/2000/svg" xmlns:xlink="http://www.w3.org/1999/xlink">
    <!-- Generator: Sketch 3.7.2 (28276) - http://www.bohemiancoding.com/sketch -->
    <title>Profi_icons_29</title>
    <desc>Created with Sketch.</desc>
    <defs></defs>
    <g id="Page-1" stroke="none" stroke-width="1" fill="none" fill-rule="evenodd">
        <g id="Profi_icons_29" fill="#4A4A4A">
            <g id="Group-8" transform="translate(256.102217, 255.544523) rotate(-45.000000) translate(-256.102217, -255.544523) translate(91.102217, 165.044523)">
                <path d="M205.194075,93 C194.59355,107.077242 177.741217,116.18018 158.766776,116.18018 L58.0842876,116.18018 C26.0030634,116.18018 0,90.1762855 0,58.0900901 C0,26.0105284 26.0103136,0 58.0842876,0 L158.766776,0 C188.791548,0 213.492421,22.7769705 216.535773,52 L200.413934,52 C197.464215,31.6373421 179.94348,16 158.766776,16 L58.0842876,16 C34.8468992,16 16,34.8470548 16,58.0900901 C16,81.339844 34.8397339,100.18018 58.0842876,100.18018 L158.766776,100.18018 C167.47513,100.18018 175.566874,97.5332593 182.281144,93 L205.194075,93 Z" id="Combined-Shape"></path>
                <path d="M318.194075,157 C307.59355,171.077242 290.741217,180.18018 271.766776,180.18018 L171.084288,180.18018 C139.003063,180.18018 113,154.176286 113,122.09009 C113,90.0105284 139.010314,64 171.084288,64 L271.766776,64 C301.791548,64 326.492421,86.7769705 329.535773,116 L313.413934,116 C310.464215,95.6373421 292.94348,80 271.766776,80 L171.084288,80 C147.846899,80 129,98.8470548 129,122.09009 C129,145.339844 147.839734,164.18018 171.084288,164.18018 L271.766776,164.18018 C280.47513,164.18018 288.566874,161.533259 295.281144,157 L318.194075,157 Z" id="Combined-Shape-Copy" transform="translate(221.267886, 122.090090) scale(-1, -1) translate(-221.267886, -122.090090) "></path>
            </g>
        </g>
    </g>
</svg>