<?xml version="1.0" encoding="UTF-8" standalone="no"?>
<svg width="512px" height="512px" viewBox="0 0 512 512" version="1.1" xmlns="http://www.w3.org/2000/svg" xmlns:xlink="http://www.w3.org/1999/xlink">
    <!-- Generator: Sketch 3.7.2 (28276) - http://www.bohemiancoding.com/sketch -->
    <title>Profi_icons_25</title>
    <desc>Created with Sketch.</desc>
    <defs></defs>
    <g id="Page-1" stroke="none" stroke-width="1" fill="none" fill-rule="evenodd">
        <g id="Profi_icons_25" stroke="#4A4A4A" stroke-width="16">
            <circle id="Oval-31" cx="138" cy="286" r="59"></circle>
            <circle id="Oval-31-Copy-3" cx="139" cy="287" r="82"></circle>
            <circle id="Oval-31-Copy-4" cx="375" cy="287" r="82"></circle>
            <circle id="Oval-31-Copy" cx="375" cy="286" r="59"></circle>
            <circle id="Oval-31-Copy-2" cx="257" cy="220" r="18"></circle>
            <path d="M185,219 L242.664062,209" id="Path-81" stroke-linecap="round" stroke-linejoin="round"></path>
            <g id="Group" transform="translate(238.000000, 257.500000) scale(1, -1) translate(-238.000000, -257.500000) translate(220.000000, 245.000000)" stroke-linecap="round" stroke-linejoin="round">
                <path d="M0.80318981,0.359814897 C6.99620859,5.07717722 27.529572,20.8360853 36.0000015,24.7246087" id="Path-81-Copy-2"></path>
            </g>
            <g id="Group-2" transform="translate(292.500000, 240.000000) scale(-1, 1) translate(-292.500000, -240.000000) translate(257.000000, 210.000000)" stroke-linecap="round" stroke-linejoin="round">
                <path d="M0,9 L56,2.27373675e-13" id="Path-81-Copy"></path>
                <g id="Group-Copy" transform="translate(53.000000, 47.134549) scale(1, -1) translate(-53.000000, -47.134549) translate(35.000000, 34.634549)">
                    <path d="M0.80318981,0.359814897 C6.99620859,5.07717722 27.529572,20.8360853 36.0000015,24.7246087" id="Path-81-Copy-2"></path>
                </g>
            </g>
        </g>
    </g>
</svg>