<?xml version="1.0" encoding="UTF-8" standalone="no"?>
<svg width="512px" height="512px" viewBox="0 0 512 512" version="1.1" xmlns="http://www.w3.org/2000/svg" xmlns:xlink="http://www.w3.org/1999/xlink">
    <!-- Generator: Sketch 3.7.2 (28276) - http://www.bohemiancoding.com/sketch -->
    <title>Profi_icons_36</title>
    <desc>Created with Sketch.</desc>
    <defs></defs>
    <g id="Page-1" stroke="none" stroke-width="1" fill="none" fill-rule="evenodd">
        <g id="Profi_icons_36" stroke="#4A4A4A" stroke-width="16">
            <circle id="Oval-34" cx="256" cy="256" r="137"></circle>
            <path d="M154,164.78228 L154,164.78228 C179.04715,192.132971 215.051006,209.283777 255.060647,209.283777 C295.932456,209.283777 332.623978,191.385842 357.725184,163" id="Oval-34-Copy"></path>
            <path d="M154,304.498503 L154,304.498503 C179.04715,331.849194 215.051006,349 255.060647,349 C295.932456,349 332.623978,331.102065 357.725184,302.716223" id="Oval-34-Copy" transform="translate(255.862592, 325.858112) scale(1, -1) translate(-255.862592, -325.858112) "></path>
            <path d="M120,256 L392.234375,256" id="Path-152"></path>
            <path d="M255.617188,386.617188 L255.617188,114.382813" id="Path-152-Copy"></path>
            <g id="Group" transform="translate(176.000000, 122.000000)">
                <path d="M78.59375,0.9296875 C78.59375,0.9296875 0.59375,46.3496094 0.59375,135 C0.59375,223.650391 78.59375,268 78.59375,268" id="Path-156"></path>
            </g>
            <g id="Group" transform="translate(294.500000, 256.000000) scale(-1, 1) translate(-294.500000, -256.000000) translate(255.000000, 122.000000)">
                <path d="M78.59375,0.9296875 C78.59375,0.9296875 0.59375,46.3496094 0.59375,135 C0.59375,223.650391 78.59375,268 78.59375,268" id="Path-156"></path>
            </g>
        </g>
    </g>
</svg>