<?xml version="1.0" encoding="UTF-8" standalone="no"?>
<svg width="512px" height="512px" viewBox="0 0 512 512" version="1.1" xmlns="http://www.w3.org/2000/svg" xmlns:xlink="http://www.w3.org/1999/xlink">
    <!-- Generator: Sketch 3.7.2 (28276) - http://www.bohemiancoding.com/sketch -->
    <title>Profi_icons_54</title>
    <desc>Created with Sketch.</desc>
    <defs></defs>
    <g id="Page-1" stroke="none" stroke-width="1" fill="none" fill-rule="evenodd">
        <g id="Profi_icons_54" stroke="#4A4A4A" stroke-width="16">
            <path d="M184.39281,180.527511 C174.177035,176.365411 163.001044,174.072072 151.289414,174.072072 C102.80466,174.072072 63.5,213.376731 63.5,261.861486 C63.5,275.356608 66.5449997,288.140532 71.9854147,299.563674 C94.9864985,353.300623 168.242799,393.337386 269.322072,393.335579 C366.208517,393.333848 436.5,333.920809 436.5,262.701576 C436.5,261.295454 436.467525,259.941744 436.403066,258.638926 C436.467459,257.200899 436.5,255.754587 436.5,254.300675 C436.5,209.301115 405.327574,183.237645 363.39873,176.606705 C357.535494,134.653679 319.569277,102.664414 278.143018,102.664414 C231.455788,102.664414 192.605622,136.218876 184.39281,180.527511 Z" id="Combined-Shape" transform="translate(250.000000, 247.999997) rotate(-5.000000) translate(-250.000000, -247.999997) "></path>
            <g id="Group" transform="translate(256.000000, 260.500000) rotate(-180.000000) translate(-256.000000, -260.500000) translate(237.000000, 198.000000)" stroke-linecap="round" stroke-linejoin="round">
                <g id="Group-2" transform="translate(19.000000, 9.750000) rotate(-90.000000) translate(-19.000000, -9.750000) translate(10.000000, -8.750000)">
                    <path d="M18,18.9999998 L-7.76532829e-08,36.9999999" id="Path-793"></path>
                    <path d="M17.0000003,18.0000003 L0.493244477,0.493244477" id="Path-794"></path>
                </g>
                <path d="M18.5,2.25 L18.5,124.75" id="Line"></path>
            </g>
        </g>
    </g>
</svg>