<?xml version="1.0" encoding="UTF-8" standalone="no"?>
<svg width="512px" height="512px" viewBox="0 0 512 512" version="1.1" xmlns="http://www.w3.org/2000/svg" xmlns:xlink="http://www.w3.org/1999/xlink">
    <!-- Generator: Sketch 3.7.2 (28276) - http://www.bohemiancoding.com/sketch -->
    <title>Profi_icons_13</title>
    <desc>Created with Sketch.</desc>
    <defs></defs>
    <g id="Page-1" stroke="none" stroke-width="1" fill="none" fill-rule="evenodd">
        <g id="Profi_icons_13" stroke-width="16" stroke="#4A4A4A">
            <g id="Group" transform="translate(256.000000, 256.000000) rotate(-270.000000) translate(-256.000000, -256.000000) translate(119.000000, 119.000000)">
                <circle id="Oval-34" cx="137" cy="137" r="137"></circle>
            </g>
            <g id="Group-3" transform="translate(169.000000, 205.000000)" stroke-linecap="round" stroke-linejoin="round">
                <g id="Group-2">
                    <path d="M0,87.0000037 C0,87.0000037 59,93.0000002 90,51 C121,8.99999976 175,18.9999998 175,18.9999998 L157,36.9999999" id="Path-793"></path>
                    <path d="M174,18.0000003 L157.493244,0.493244477" id="Path-794"></path>
                </g>
                <g id="Group-2" transform="translate(87.500000, 59.000000) scale(1, -1) translate(-87.500000, -59.000000) translate(0.000000, 15.000000)">
                    <path d="M0,87.0000037 C0,87.0000037 59,93.0000002 90,51 C121,8.99999976 175,18.9999998 175,18.9999998 L157,36.9999999" id="Path-793"></path>
                    <path d="M174,18.0000003 L157.493244,0.493244477" id="Path-794"></path>
                </g>
            </g>
        </g>
    </g>
</svg>