<?xml version="1.0" encoding="UTF-8" standalone="no"?>
<svg width="512px" height="512px" viewBox="0 0 512 512" version="1.1" xmlns="http://www.w3.org/2000/svg" xmlns:xlink="http://www.w3.org/1999/xlink">
    <!-- Generator: Sketch 3.7.2 (28276) - http://www.bohemiancoding.com/sketch -->
    <title>Profi_icons_27</title>
    <desc>Created with Sketch.</desc>
    <defs></defs>
    <g id="Page-1" stroke="none" stroke-width="1" fill="none" fill-rule="evenodd">
        <g id="Profi_icons_27" stroke="#4A4A4A" stroke-width="16">
            <path d="M166.428571,257.876816 C166.428571,213.139349 166.428569,188.99362 166.428569,188.99362 C166.428567,145.918933 201.348793,111 244.42684,111 L268.573145,111 C311.650402,111 346.571421,145.93052 346.571423,188.991819 C346.571423,188.991819 346.571425,214.9241 346.571425,260.646806 C346.571425,303.256014 401.999996,352.056487 401.999996,352.056487 L111,352.056487 C111,352.056487 166.428571,301.471262 166.428571,257.876816 Z" id="Rectangle-79" stroke-linecap="round" stroke-linejoin="round"></path>
            <path d="M211,353 C211,378.128956 231.371044,398.5 256.5,398.5 L256.5,398.5 C281.628956,398.5 302,378.128956 302,353" id="Oval-60"></path>
        </g>
    </g>
</svg>