<?xml version="1.0" encoding="UTF-8" standalone="no"?>
<svg width="512px" height="512px" viewBox="0 0 512 512" version="1.1" xmlns="http://www.w3.org/2000/svg" xmlns:xlink="http://www.w3.org/1999/xlink">
    <!-- Generator: Sketch 3.7.2 (28276) - http://www.bohemiancoding.com/sketch -->
    <title>Profi_icons_47</title>
    <desc>Created with Sketch.</desc>
    <defs></defs>
    <g id="Page-1" stroke="none" stroke-width="1" fill="none" fill-rule="evenodd">
        <g id="Profi_icons_47">
            <g id="Group-2" transform="translate(69.000000, 150.000000)">
                <path d="M138.039062,31 L235.148438,31" id="Path-116" stroke="#4A4A4A" stroke-width="16" stroke-linecap="round" stroke-linejoin="round"></path>
                <path d="M153,122 L219,122" id="Path-116-Copy" stroke="#4A4A4A" stroke-width="16" stroke-linecap="round" stroke-linejoin="round"></path>
                <circle id="Oval-26" stroke="#4A4A4A" stroke-width="16" cx="103" cy="84" r="60"></circle>
                <circle id="Oval-26" stroke="#4A4A4A" stroke-width="16" transform="translate(272.000000, 84.000000) scale(-1, 1) translate(-272.000000, -84.000000) " cx="272" cy="84" r="60"></circle>
                <path d="M104.491483,113.706122 L93.8312293,178.261148 C93.8312293,196.481263 79.0606333,211.251584 60.8312293,211.251584 C42.6058325,211.251584 27.8312293,196.485082 27.8312293,178.261148 L19.1709752,120.24202" id="Rectangle-14" stroke="#4A4A4A" stroke-width="16" stroke-linecap="round" stroke-linejoin="round" transform="translate(61.831229, 162.478853) rotate(-330.000000) translate(-61.831229, -162.478853) "></path>
                <path d="M355.829025,113.706122 L345.168771,178.261148 C345.168771,196.481263 330.398175,211.251584 312.168771,211.251584 C293.943374,211.251584 279.168771,196.485082 279.168771,178.261148 L270.508517,120.24202" id="Rectangle-14" stroke="#4A4A4A" stroke-width="16" stroke-linecap="round" stroke-linejoin="round" transform="translate(313.168771, 162.478853) scale(-1, 1) rotate(-330.000000) translate(-313.168771, -162.478853) "></path>
                <path d="M182,71 L192,71" id="Path-120" stroke="#4A4A4A" stroke-width="16" stroke-linecap="round" stroke-linejoin="round"></path>
                <path d="M103,56 L103,112" id="Path-121" stroke="#4A4A4A" stroke-width="16" stroke-linecap="round" stroke-linejoin="round"></path>
                <path d="M75,84 L131,84" id="Path-121" stroke="#4A4A4A" stroke-width="16" stroke-linecap="round" stroke-linejoin="round"></path>
                <g id="Group" transform="translate(245.000000, 56.000000)" fill="#4A4A4A">
                    <circle id="Oval-28" cx="9" cy="9" r="9"></circle>
                    <circle id="Oval-28-Copy" cx="9" cy="47" r="9"></circle>
                </g>
                <g id="Group-Copy" transform="translate(283.000000, 56.000000)" fill="#4A4A4A">
                    <circle id="Oval-28" cx="9" cy="9" r="9"></circle>
                    <circle id="Oval-28-Copy" cx="9" cy="47" r="9"></circle>
                </g>
                <path d="M87,1 L117,1" id="Path-123" stroke="#4A4A4A" stroke-width="16" stroke-linecap="round" stroke-linejoin="round"></path>
                <path d="M257,1 L287,1" id="Path-123-Copy" stroke="#4A4A4A" stroke-width="16" stroke-linecap="round" stroke-linejoin="round"></path>
            </g>
        </g>
    </g>
</svg>