<?xml version="1.0" encoding="UTF-8" standalone="no"?>
<svg width="512px" height="512px" viewBox="0 0 512 512" version="1.1" xmlns="http://www.w3.org/2000/svg" xmlns:xlink="http://www.w3.org/1999/xlink">
    <!-- Generator: Sketch 3.7.2 (28276) - http://www.bohemiancoding.com/sketch -->
    <title>Profi_icons_28</title>
    <desc>Created with Sketch.</desc>
    <defs></defs>
    <g id="Page-1" stroke="none" stroke-width="1" fill="none" fill-rule="evenodd">
        <g id="Profi_icons_28" stroke="#4A4A4A" stroke-width="16">
            <rect id="Rectangle-73" x="121" y="224" width="239" height="180"></rect>
            <path d="M359,224 L435,224 L435,277 C435,306.271092 411.2756,330 381.991795,330 L359,330" id="Rectangle-73-Copy"></path>
            <path d="M233.666666,194.005814 C233.666666,194.005814 218.666667,175 233.666666,151.002907 C248.666666,127.005814 233.666666,108 233.666666,108" id="Path-812" stroke-linecap="round" stroke-linejoin="round"></path>
            <path d="M183.666666,194.005814 C183.666666,194.005814 168.666667,175 183.666666,151.002907 C198.666666,127.005814 183.666666,108 183.666666,108" id="Path-812-Copy" stroke-linecap="round" stroke-linejoin="round"></path>
            <path d="M283.666666,194.005814 C283.666666,194.005814 268.666667,175 283.666666,151.002907 C298.666666,127.005814 283.666666,108 283.666666,108" id="Path-812-Copy-2" stroke-linecap="round" stroke-linejoin="round"></path>
        </g>
    </g>
</svg>